<?xml version="1.0" encoding="utf-8"?>
<!-- Generator: Adobe Illustrator 27.2.0, SVG Export Plug-In . SVG Version: 6.00 Build 0)  -->
<svg version="1.1" id="Layer_1" xmlns="http://www.w3.org/2000/svg" xmlns:xlink="http://www.w3.org/1999/xlink" x="0px" y="0px"
	 viewBox="0 0 16 16" style="enable-background:new 0 0 16 16;" xml:space="preserve">
<style type="text/css">
	.st0{fill:#607CE6;}
</style>
<path class="st0" d="M12.2,10c-1.1-0.1-1.7,1.4-2.5,1.8C8.4,12.5,6,10,6,10S3.5,7.6,4.1,6.3c0.5-0.8,2-1.4,1.9-2.5
	c-0.1-1-2.3-4.6-3.4-3.6C0.2,2.4,0,3.3,0,5.1c-0.1,3.1,3.9,7,3.9,7c0.4,0.4,3.9,4,7,3.9c1.8,0,2.7-0.2,4.9-2.6
	C16.8,12.3,13.3,10.1,12.2,10z"/>
</svg>
